<svg width="20" height="20" viewBox="0 0 20 20" fill="none" xmlns="http://www.w3.org/2000/svg">
<path d="M10.0043 18.125C9.18095 18.125 8.44011 17.6975 8.02261 16.9808C7.84927 16.6825 7.9501 16.3 8.24844 16.1267C8.54594 15.9525 8.92928 16.0533 9.10261 16.3525C9.48428 17.0067 10.5234 17.0083 10.9059 16.3525C11.0801 16.0542 11.4634 15.9542 11.7609 16.1275C12.0593 16.3008 12.1601 16.6842 11.9859 16.9825C11.5676 17.6975 10.8276 18.125 10.0043 18.125ZM17.2301 15.2708C17.3343 15.0542 17.3051 14.7975 17.1551 14.61C17.1401 14.5908 15.6259 12.6717 15.6259 10.4175V8.33333C15.6259 7.98833 15.3459 7.70833 15.0009 7.70833C14.6559 7.70833 14.3759 7.98833 14.3759 8.33333V10.4167C14.3759 12.03 14.9993 13.465 15.5134 14.375H4.48927C5.00344 13.465 5.62677 12.03 5.62677 10.4167V7.5C5.62677 5.0875 7.58928 3.125 10.0018 3.125C10.3468 3.125 10.6268 2.845 10.6268 2.5C10.6268 2.155 10.3468 1.875 10.0018 1.875C6.90011 1.875 4.37677 4.39833 4.37677 7.5V10.4167C4.37677 12.6575 2.86178 14.5908 2.84678 14.61C2.69761 14.7975 2.66844 15.055 2.77344 15.2708C2.87761 15.4867 3.09595 15.625 3.33595 15.625H16.6693C16.9068 15.625 17.1259 15.4875 17.2301 15.2708ZM16.4584 4.16667C16.4584 2.90333 15.4309 1.875 14.1668 1.875C12.9026 1.875 11.8751 2.90333 11.8751 4.16667C11.8751 5.43 12.9026 6.45833 14.1668 6.45833C15.4309 6.45833 16.4584 5.43 16.4584 4.16667ZM15.2084 4.16667C15.2084 4.74083 14.7409 5.20833 14.1668 5.20833C13.5926 5.20833 13.1251 4.74083 13.1251 4.16667C13.1251 3.5925 13.5926 3.125 14.1668 3.125C14.7409 3.125 15.2084 3.5925 15.2084 4.16667Z" fill="#1E1E1E"/>
</svg>
