<svg width="20" height="20" viewBox="0 0 20 20" fill="none" xmlns="http://www.w3.org/2000/svg">
<path d="M8.55835 17.5001C8.55835 18.0751 8.09168 18.5418 7.51668 18.5418C6.94252 18.5418 6.47085 18.0751 6.47085 17.5001C6.47085 16.9251 6.93334 16.4585 7.50834 16.4585H7.51668C8.09168 16.4585 8.55835 16.9251 8.55835 17.5001ZM14.1834 16.4585H14.175C13.6 16.4585 13.1375 16.9251 13.1375 17.5001C13.1375 18.0751 13.6084 18.5418 14.1834 18.5418C14.7584 18.5418 15.225 18.0751 15.225 17.5001C15.225 16.9251 14.7584 16.4585 14.1834 16.4585ZM18.0875 7.07681L17.2425 12.2151C17.0234 13.4201 16.4783 14.7918 14.1667 14.7918H7.27834C6.14584 14.7918 5.16997 13.946 5.00997 12.8243L3.75163 4.02014C3.67829 3.51014 3.23585 3.12598 2.72085 3.12598H2.5C2.155 3.12598 1.875 2.84598 1.875 2.50098C1.875 2.15598 2.155 1.87598 2.5 1.87598H2.72166C3.85416 1.87598 4.83003 2.7218 4.99003 3.84347L5.06663 4.37598H15.8333C16.515 4.37598 17.1567 4.67597 17.5934 5.1993C18.0292 5.7218 18.21 6.40681 18.0875 7.07681ZM16.0108 12.0026L16.1 11.4585H10.8333C10.4883 11.4585 10.2083 11.1785 10.2083 10.8335C10.2083 10.4885 10.4883 10.2085 10.8333 10.2085H16.3058L16.8559 6.86346C16.9134 6.54846 16.8317 6.23681 16.6325 5.99931C16.4333 5.76181 16.1425 5.62514 15.8325 5.62514H5.24414L6.24746 12.6476C6.32079 13.1576 6.76334 13.5418 7.27834 13.5418H14.1667C15.4975 13.5418 15.8217 13.0451 16.0108 12.0026Z" fill="#202020"/>
</svg>
