<svg width="96" height="96" viewBox="0 0 96 96" fill="none" xmlns="http://www.w3.org/2000/svg">
<mask id="path-1-inside-1_2349_32644" fill="white">
<path d="M76.1739 25.5895C79.4026 29.6485 81.7162 34.3574 82.9561 39.3936C84.1961 44.4298 84.3331 49.6745 83.358 54.7687C82.3828 59.8628 80.3184 64.686 77.3061 68.9083C74.2937 73.1305 70.4047 76.6519 65.905 79.2315L55.162 60.4926C56.9619 59.4608 58.5175 58.0522 59.7224 56.3633C60.9273 54.6744 61.7531 52.7451 62.1432 50.7075C62.5333 48.6698 62.4784 46.5719 61.9824 44.5574C61.4865 42.543 60.5611 40.6594 59.2696 39.0358L76.1739 25.5895Z"/>
</mask>
<path d="M76.1739 25.5895C79.4026 29.6485 81.7162 34.3574 82.9561 39.3936C84.1961 44.4298 84.3331 49.6745 83.358 54.7687C82.3828 59.8628 80.3184 64.686 77.3061 68.9083C74.2937 73.1305 70.4047 76.6519 65.905 79.2315L55.162 60.4926C56.9619 59.4608 58.5175 58.0522 59.7224 56.3633C60.9273 54.6744 61.7531 52.7451 62.1432 50.7075C62.5333 48.6698 62.4784 46.5719 61.9824 44.5574C61.4865 42.543 60.5611 40.6594 59.2696 39.0358L76.1739 25.5895Z" stroke="#202020" stroke-width="2" mask="url(#path-1-inside-1_2349_32644)"/>
<mask id="path-2-inside-2_2349_32644" fill="white">
<path d="M61.7921 81.2532C54.4471 84.2997 46.3001 84.8285 38.6229 82.7573C30.9457 80.6861 24.1702 76.1313 19.3541 69.804C14.538 63.4766 11.9523 55.7328 12.0007 47.7812C12.049 39.8296 14.7286 32.1178 19.6213 25.8494L36.6485 39.1398C34.6915 41.6471 33.6196 44.7318 33.6003 47.9125C33.5809 51.0931 34.6152 54.1906 36.5416 56.7216C38.4681 59.2525 41.1783 61.0744 44.2492 61.9029C47.3201 62.7314 50.5788 62.5199 53.5169 61.3013L61.7921 81.2532Z"/>
</mask>
<path d="M61.7921 81.2532C54.4471 84.2997 46.3001 84.8285 38.6229 82.7573C30.9457 80.6861 24.1702 76.1313 19.3541 69.804C14.538 63.4766 11.9523 55.7328 12.0007 47.7812C12.049 39.8296 14.7286 32.1178 19.6213 25.8494L36.6485 39.1398C34.6915 41.6471 33.6196 44.7318 33.6003 47.9125C33.5809 51.0931 34.6152 54.1906 36.5416 56.7216C38.4681 59.2525 41.1783 61.0744 44.2492 61.9029C47.3201 62.7314 50.5788 62.5199 53.5169 61.3013L61.7921 81.2532Z" stroke="#202020" stroke-width="2" mask="url(#path-2-inside-2_2349_32644)"/>
<mask id="path-3-inside-3_2349_32644" fill="white">
<path d="M22.5442 22.5442C26.1668 18.9215 30.521 16.1138 35.3157 14.3086C40.1104 12.5035 45.2352 11.7425 50.3475 12.0766L48.939 33.6306C46.8941 33.497 44.8442 33.8014 42.9263 34.5234C41.0084 35.2455 39.2667 36.3686 37.8177 37.8177L22.5442 22.5442Z"/>
</mask>
<path d="M22.5442 22.5442C26.1668 18.9215 30.521 16.1138 35.3157 14.3086C40.1104 12.5035 45.2352 11.7425 50.3475 12.0766L48.939 33.6306C46.8941 33.497 44.8442 33.8014 42.9263 34.5234C41.0084 35.2455 39.2667 36.3686 37.8177 37.8177L22.5442 22.5442Z" stroke="#202020" stroke-width="2" mask="url(#path-3-inside-3_2349_32644)"/>
<mask id="path-4-inside-4_2349_32644" fill="white">
<path d="M54.5373 12.5985C61.6182 13.9061 68.1442 17.307 73.2722 22.3619L58.1089 37.7447C56.0577 35.7228 53.4473 34.3624 50.6149 33.8394L54.5373 12.5985Z"/>
</mask>
<path d="M54.5373 12.5985C61.6182 13.9061 68.1442 17.307 73.2722 22.3619L58.1089 37.7447C56.0577 35.7228 53.4473 34.3624 50.6149 33.8394L54.5373 12.5985Z" stroke="#202020" stroke-width="2" mask="url(#path-4-inside-4_2349_32644)"/>
<circle opacity="0.14" cx="38" cy="62" r="30" fill="#CFB376"/>
</svg>
