<svg width="20" height="20" viewBox="0 0 20 20" fill="none" xmlns="http://www.w3.org/2000/svg">
<path d="M10.0001 1.04163C5.06008 1.04163 1.04175 5.05996 1.04175 9.99996C1.04175 14.94 5.06008 18.9583 10.0001 18.9583C14.9401 18.9583 18.9584 14.94 18.9584 9.99996C18.9584 5.05996 14.9401 1.04163 10.0001 1.04163ZM10.0001 17.7083C5.74925 17.7083 2.29175 14.2508 2.29175 9.99996C2.29175 5.74913 5.74925 2.29163 10.0001 2.29163C14.2509 2.29163 17.7084 5.74913 17.7084 9.99996C17.7084 14.2508 14.2509 17.7083 10.0001 17.7083ZM10.6251 5.83329V9.99996C10.6251 10.345 10.3451 10.625 10.0001 10.625C9.65508 10.625 9.37508 10.345 9.37508 9.99996V5.83329C9.37508 5.48829 9.65508 5.20829 10.0001 5.20829C10.3451 5.20829 10.6251 5.48829 10.6251 5.83329Z" fill="#1E1E1E"/>
</svg>
