<svg width="96" height="96" viewBox="0 0 96 96" fill="none" xmlns="http://www.w3.org/2000/svg">
<path fill-rule="evenodd" clip-rule="evenodd" d="M83 24C83 24.7035 82.6111 25.5029 81.6192 26.3557C80.6306 27.2056 79.1416 28.0163 77.2146 28.7171C73.3689 30.1155 67.9899 31 62 31C56.0101 31 50.6311 30.1155 46.7854 28.7171C44.8584 28.0163 43.3694 27.2056 42.3808 26.3557C41.3889 25.5029 41 24.7035 41 24C41 23.2965 41.3889 22.4971 42.3808 21.6443C43.3694 20.7944 44.8584 19.9837 46.7854 19.2829C50.6311 17.8845 56.0101 17 62 17C67.9899 17 73.3689 17.8845 77.2146 19.2829C79.1416 19.9837 80.6306 20.7944 81.6192 21.6443C82.6111 22.4971 83 23.2965 83 24ZM83 26.3917C80.2037 29.6417 71.8592 32 62 32C52.1408 32 43.7963 29.6417 41 26.3917V34C41 34.9139 41.4813 35.8413 42.4847 36.7419C43.4885 37.6428 44.9748 38.4775 46.8694 39.1888C50.6551 40.61 55.9674 41.5 62 41.5C68.0326 41.5 73.3449 40.61 77.1306 39.1888C79.0252 38.4775 80.5115 37.6428 81.5153 36.7419C82.5187 35.8413 83 34.9139 83 34V26.3917ZM84 34V24C84 19.5817 74.1503 16 62 16C49.8497 16 40 19.5817 40 24V34V44V54V64C40 65.2953 40.6874 66.4724 41.8168 67.4861C42.9457 68.4993 44.5563 69.3885 46.5179 70.125C50.4447 71.5992 55.8824 72.5 62 72.5C68.1176 72.5 73.5553 71.5992 77.4821 70.125C79.4437 69.3885 81.0543 68.4993 82.1832 67.4861C83.3126 66.4724 84 65.2953 84 64V54V44V34ZM83 36.6258C82.7635 36.924 82.4897 37.211 82.1832 37.4861C81.0543 38.4993 79.4437 39.3885 77.4821 40.125C73.5553 41.5991 68.1176 42.5 62 42.5C55.8824 42.5 50.4447 41.5991 46.5179 40.125C44.5563 39.3885 42.9457 38.4993 41.8168 37.4861C41.5103 37.211 41.2365 36.924 41 36.6258V44C41 44.9139 41.4813 45.8413 42.4847 46.7419C43.4885 47.6428 44.9748 48.4775 46.8694 49.1888C50.6551 50.61 55.9674 51.5 62 51.5C68.0326 51.5 73.3449 50.61 77.1306 49.1888C79.0252 48.4775 80.5115 47.6428 81.5153 46.7419C82.5187 45.8413 83 44.9139 83 44V36.6258ZM83 46.6258C82.7635 46.924 82.4897 47.211 82.1832 47.4861C81.0543 48.4993 79.4437 49.3885 77.4821 50.125C73.5553 51.5992 68.1176 52.5 62 52.5C55.8824 52.5 50.4447 51.5992 46.5179 50.125C44.5563 49.3885 42.9457 48.4993 41.8168 47.4861C41.5103 47.211 41.2365 46.924 41 46.6258V54C41 54.9087 41.4932 55.8354 42.5198 56.7386C43.5457 57.641 45.0588 58.4765 46.9716 59.1882C50.7934 60.6103 56.1066 61.5 62 61.5C67.8934 61.5 73.2066 60.6103 77.0284 59.1882C78.9412 58.4765 80.4543 57.641 81.4802 56.7386C82.5068 55.8354 83 54.9087 83 54V46.6258ZM83 56.5979C82.7523 56.9076 82.4639 57.2051 82.1407 57.4894C80.9906 58.5011 79.3551 59.3895 77.3772 60.1255C73.4175 61.5988 67.9808 62.5 62 62.5C56.0192 62.5 50.5825 61.5988 46.6228 60.1255C44.6449 59.3895 43.0094 58.5011 41.8593 57.4894C41.5361 57.2051 41.2477 56.9076 41 56.5979V64C41 64.9139 41.4813 65.8413 42.4847 66.7419C43.4885 67.6428 44.9748 68.4775 46.8694 69.1888C50.6551 70.61 55.9674 71.5 62 71.5C68.0326 71.5 73.3449 70.61 77.1306 69.1888C79.0252 68.4775 80.5115 67.6428 81.5153 66.7419C82.5187 65.8413 83 64.9139 83 64V56.5979Z" fill="#202020"/>
<path fill-rule="evenodd" clip-rule="evenodd" d="M56 41V71C56 72.2953 55.3126 73.4724 54.1832 74.4861C53.0543 75.4993 51.4437 76.3885 49.4821 77.125C45.5553 78.5992 40.1176 79.5 34 79.5C27.8824 79.5 22.4447 78.5992 18.5179 77.125C16.5563 76.3885 14.9457 75.4993 13.8168 74.4861C12.6874 73.4724 12 72.2953 12 71V41C12 36.5817 21.8497 33 34 33C46.1503 33 56 36.5817 56 41ZM53.6192 43.3557C54.6111 42.5029 55 41.7035 55 41C55 40.2965 54.6111 39.4971 53.6192 38.6443C52.6306 37.7944 51.1416 36.9837 49.2146 36.2829C45.3689 34.8845 39.9899 34 34 34C28.0101 34 22.6311 34.8845 18.7854 36.2829C16.8584 36.9837 15.3694 37.7944 14.3808 38.6443C13.3889 39.4971 13 40.2965 13 41C13 41.7035 13.3889 42.5029 14.3808 43.3557C15.3694 44.2056 16.8584 45.0163 18.7854 45.7171C22.6311 47.1155 28.0101 48 34 48C39.9899 48 45.3689 47.1155 49.2146 45.7171C51.1416 45.0163 52.6306 44.2056 53.6192 43.3557ZM13 43.3917V51C13 51.9139 13.4813 52.8413 14.4847 53.7419C15.4885 54.6428 16.9748 55.4775 18.8694 56.1888C22.6551 57.61 27.9674 58.5 34 58.5C40.0326 58.5 45.3449 57.61 49.1306 56.1888C51.0252 55.4775 52.5115 54.6428 53.5153 53.7419C54.5187 52.8413 55 51.9139 55 51V43.3917C52.2037 46.6417 43.8592 49 34 49C24.1408 49 15.7963 46.6417 13 43.3917ZM13 53.6258V61C13 61.9087 13.4932 62.8354 14.5198 63.7386C15.5457 64.641 17.0588 65.4765 18.9716 66.1882C22.7934 67.6103 28.1066 68.5 34 68.5C39.8934 68.5 45.2066 67.6103 49.0284 66.1882C50.9412 65.4765 52.4543 64.641 53.4802 63.7386C54.5068 62.8354 55 61.9087 55 61V53.6258C54.7635 53.924 54.4897 54.211 54.1832 54.4861C53.0543 55.4993 51.4437 56.3885 49.4821 57.125C45.5553 58.5991 40.1176 59.5 34 59.5C27.8824 59.5 22.4447 58.5991 18.5179 57.125C16.5563 56.3885 14.9457 55.4993 13.8168 54.4861C13.5103 54.211 13.2365 53.924 13 53.6258ZM55 63.5978C54.7523 63.9076 54.4639 64.2051 54.1407 64.4894C52.9906 65.5011 51.3551 66.3895 49.3772 67.1255C45.4175 68.5988 39.9808 69.5 34 69.5C28.0192 69.5 22.5825 68.5988 18.6228 67.1255C16.6449 66.3895 15.0094 65.5011 13.8593 64.4894C13.5361 64.2051 13.2477 63.9076 13 63.5979V71C13 71.9139 13.4813 72.8413 14.4847 73.7419C15.4885 74.6428 16.9748 75.4775 18.8694 76.1888C22.6551 77.61 27.9674 78.5 34 78.5C40.0326 78.5 45.3449 77.61 49.1306 76.1888C51.0252 75.4775 52.5115 74.6428 53.5153 73.7419C54.5187 72.8413 55 71.9139 55 71V63.5978Z" fill="white"/>
<path d="M55 41C55 41.7035 54.6111 42.5029 53.6192 43.3557C52.6306 44.2056 51.1416 45.0163 49.2146 45.7171C45.3689 47.1155 39.9899 48 34 48C28.0101 48 22.6311 47.1155 18.7854 45.7171C16.8584 45.0163 15.3694 44.2056 14.3808 43.3557C13.3889 42.5029 13 41.7035 13 41C13 40.2965 13.3889 39.4971 14.3808 38.6443C15.3694 37.7944 16.8584 36.9837 18.7854 36.2829C22.6311 34.8845 28.0101 34 34 34C39.9899 34 45.3689 34.8845 49.2146 36.2829C51.1416 36.9837 52.6306 37.7944 53.6192 38.6443C54.6111 39.4971 55 40.2965 55 41Z" fill="white"/>
<path d="M13 43.3917V51C13 51.9139 13.4813 52.8413 14.4847 53.7419C15.4885 54.6428 16.9748 55.4775 18.8694 56.1888C22.6551 57.61 27.9674 58.5 34 58.5C40.0326 58.5 45.3449 57.61 49.1306 56.1888C51.0252 55.4775 52.5115 54.6428 53.5153 53.7419C54.5187 52.8413 55 51.9139 55 51V43.3917C52.2037 46.6417 43.8592 49 34 49C24.1408 49 15.7963 46.6417 13 43.3917Z" fill="white"/>
<path d="M13 53.6258V61C13 61.9087 13.4932 62.8354 14.5198 63.7386C15.5457 64.641 17.0588 65.4765 18.9716 66.1882C22.7934 67.6103 28.1066 68.5 34 68.5C39.8934 68.5 45.2066 67.6103 49.0284 66.1882C50.9412 65.4765 52.4543 64.641 53.4802 63.7386C54.5068 62.8354 55 61.9087 55 61V53.6258C54.7635 53.924 54.4897 54.211 54.1832 54.4861C53.0543 55.4993 51.4437 56.3885 49.4821 57.125C45.5553 58.5991 40.1176 59.5 34 59.5C27.8824 59.5 22.4447 58.5991 18.5179 57.125C16.5563 56.3885 14.9457 55.4993 13.8168 54.4861C13.5103 54.211 13.2365 53.924 13 53.6258Z" fill="white"/>
<path d="M54.1407 64.4894C54.4639 64.2051 54.7523 63.9076 55 63.5978V71C55 71.9139 54.5187 72.8413 53.5153 73.7419C52.5115 74.6428 51.0252 75.4775 49.1306 76.1888C45.3449 77.61 40.0326 78.5 34 78.5C27.9674 78.5 22.6551 77.61 18.8694 76.1888C16.9748 75.4775 15.4885 74.6428 14.4847 73.7419C13.4813 72.8413 13 71.9139 13 71V63.5979C13.2477 63.9076 13.5361 64.2051 13.8593 64.4894C15.0094 65.5011 16.6449 66.3895 18.6228 67.1255C22.5825 68.5988 28.0192 69.5 34 69.5C39.9808 69.5 45.4175 68.5988 49.3772 67.1255C51.3551 66.3895 52.9906 65.5011 54.1407 64.4894Z" fill="white"/>
<path fill-rule="evenodd" clip-rule="evenodd" d="M53.6192 43.3557C54.6111 42.5029 55 41.7035 55 41C55 40.2965 54.6111 39.4971 53.6192 38.6443C52.6306 37.7944 51.1416 36.9837 49.2146 36.2829C45.3689 34.8845 39.9899 34 34 34C28.0101 34 22.6311 34.8845 18.7854 36.2829C16.8584 36.9837 15.3694 37.7944 14.3808 38.6443C13.3889 39.4971 13 40.2965 13 41C13 41.7035 13.3889 42.5029 14.3808 43.3557C15.3694 44.2056 16.8584 45.0163 18.7854 45.7171C22.6311 47.1155 28.0101 48 34 48C39.9899 48 45.3689 47.1155 49.2146 45.7171C51.1416 45.0163 52.6306 44.2056 53.6192 43.3557ZM13 43.3917V51C13 51.9139 13.4813 52.8413 14.4847 53.7419C15.4885 54.6428 16.9748 55.4775 18.8694 56.1888C22.6551 57.61 27.9674 58.5 34 58.5C40.0326 58.5 45.3449 57.61 49.1306 56.1888C51.0252 55.4775 52.5115 54.6428 53.5153 53.7419C54.5187 52.8413 55 51.9139 55 51V43.3917C52.2037 46.6417 43.8592 49 34 49C24.1408 49 15.7963 46.6417 13 43.3917ZM56 41V51V61V71C56 72.2953 55.3126 73.4724 54.1832 74.4861C53.0543 75.4993 51.4437 76.3885 49.4821 77.125C45.5553 78.5992 40.1176 79.5 34 79.5C27.8824 79.5 22.4447 78.5992 18.5179 77.125C16.5563 76.3885 14.9457 75.4993 13.8168 74.4861C12.6874 73.4724 12 72.2953 12 71V61V51V41C12 36.5817 21.8497 33 34 33C46.1503 33 56 36.5817 56 41ZM13 53.6258V61C13 61.9087 13.4932 62.8354 14.5198 63.7386C15.5457 64.641 17.0588 65.4765 18.9716 66.1882C22.7934 67.6103 28.1066 68.5 34 68.5C39.8934 68.5 45.2066 67.6103 49.0284 66.1882C50.9412 65.4765 52.4543 64.641 53.4802 63.7386C54.5068 62.8354 55 61.9087 55 61V53.6258C54.7635 53.924 54.4897 54.211 54.1832 54.4861C53.0543 55.4993 51.4437 56.3885 49.4821 57.125C45.5553 58.5991 40.1176 59.5 34 59.5C27.8824 59.5 22.4447 58.5991 18.5179 57.125C16.5563 56.3885 14.9457 55.4993 13.8168 54.4861C13.5103 54.211 13.2365 53.924 13 53.6258ZM55 63.5978C54.7523 63.9076 54.4639 64.2051 54.1407 64.4894C52.9906 65.5011 51.3551 66.3895 49.3772 67.1255C45.4175 68.5988 39.9808 69.5 34 69.5C28.0192 69.5 22.5825 68.5988 18.6228 67.1255C16.6449 66.3895 15.0094 65.5011 13.8593 64.4894C13.5361 64.2051 13.2477 63.9076 13 63.5979V71C13 71.9139 13.4813 72.8413 14.4847 73.7419C15.4885 74.6428 16.9748 75.4775 18.8694 76.1888C22.6551 77.61 27.9674 78.5 34 78.5C40.0326 78.5 45.3449 77.61 49.1306 76.1888C51.0252 75.4775 52.5115 74.6428 53.5153 73.7419C54.5187 72.8413 55 71.9139 55 71V63.5978Z" fill="#202020"/>
<circle opacity="0.14" cx="62" cy="62" r="30" fill="#CFB376"/>
</svg>
