<svg width="20" height="20" viewBox="0 0 20 20" fill="none" xmlns="http://www.w3.org/2000/svg">
<path d="M15 17.2917H5C2.985 17.2917 1.875 16.1817 1.875 14.1667V6.66666C1.875 4.65166 2.985 3.54166 5 3.54166H15C17.015 3.54166 18.125 4.65166 18.125 6.66666V14.1667C18.125 16.1817 17.015 17.2917 15 17.2917ZM5 4.79166C3.68583 4.79166 3.125 5.35249 3.125 6.66666V14.1667C3.125 15.4808 3.68583 16.0417 5 16.0417H15C16.3142 16.0417 16.875 15.4808 16.875 14.1667V6.66666C16.875 5.35249 16.3142 4.79166 15 4.79166H5ZM10.8575 10.9825L14.9508 8.00582C15.2299 7.80332 15.2916 7.41166 15.0883 7.13249C14.8858 6.85416 14.4959 6.79082 14.2151 6.99499L10.1217 9.97166C10.0483 10.025 9.95086 10.025 9.87752 9.97166L5.7841 6.99499C5.50243 6.79082 5.11339 6.85499 4.91089 7.13249C4.70756 7.41166 4.76925 7.80248 5.04842 8.00582L9.14164 10.9833C9.39831 11.17 9.69919 11.2625 9.99919 11.2625C10.2992 11.2625 10.6017 11.1692 10.8575 10.9825Z" fill="white"/>
</svg>
