<svg width="128" height="24" viewBox="0 0 128 24" fill="none" xmlns="http://www.w3.org/2000/svg">
<g clip-path="url(#clip0_2155_34059)">
<path d="M23.9625 0H0V24H23.9625V0Z" fill="#04B980"/>
<path d="M49.9195 0H25.957V24H49.9195V0Z" fill="#04B980"/>
<path d="M75.8824 0H51.9199V24H75.8824V0Z" fill="#04B980"/>
<path d="M101.839 0H77.877V24H101.839V0Z" fill="#04B980"/>
<path d="M127.802 0H103.84V24H127.802V0Z" fill="#04B980"/>
<path d="M11.9845 16.1719L15.6288 15.2469L17.1514 19.9469L11.9845 16.1719ZM20.3714 10.0969H13.9564L11.9845 4.04688L10.0126 10.0969H3.59766L8.78953 13.8469L6.81762 19.8969L12.0095 16.1469L15.2045 13.8469L20.3714 10.0969Z" fill="white"/>
<path d="M37.9416 16.1719L41.5859 15.2469L43.1085 19.9469L37.9416 16.1719ZM46.3284 10.0969H39.9135L37.9416 4.04688L35.9697 10.0969H29.5547L34.7466 13.8469L32.7746 19.8969L37.9665 16.1469L41.1615 13.8469L46.3284 10.0969Z" fill="white"/>
<path d="M63.8986 16.1719L67.5429 15.2469L69.0655 19.9469L63.8986 16.1719ZM72.2855 10.0969H65.8705L63.8986 4.04688L61.9267 10.0969H55.5117L60.7036 13.8469L58.7317 19.8969L63.9236 16.1469L67.1186 13.8469L72.2855 10.0969Z" fill="white"/>
<path d="M89.8556 16.1719L93.4999 15.2469L95.0225 19.9469L89.8556 16.1719ZM98.2425 10.0969H91.8275L89.8556 4.04688L87.8837 10.0969H81.4688L86.6606 13.8469L84.6887 19.8969L89.8806 16.1469L93.0756 13.8469L98.2425 10.0969Z" fill="white"/>
<path d="M115.819 16.1719L119.463 15.2469L120.985 19.9469L115.819 16.1719ZM124.205 10.0969H117.79L115.819 4.04688L113.847 10.0969H107.432L112.624 13.8469L110.652 19.8969L115.843 16.1469L119.038 13.8469L124.205 10.0969Z" fill="white"/>
</g>
<defs>
<clipPath id="clip0_2155_34059">
<rect width="127.8" height="24" fill="white"/>
</clipPath>
</defs>
</svg>
