<svg width="24" height="24" viewBox="0 0 24 24" fill="none" xmlns="http://www.w3.org/2000/svg">
<path d="M12 2.25C7.175 2.25 3.25 6.175 3.25 11C3.25 16.118 7.94699 19.2199 11.055 21.2729L11.584 21.624C11.71 21.708 11.855 21.75 12 21.75C12.145 21.75 12.29 21.708 12.416 21.624L12.945 21.2729C16.053 19.2199 20.75 16.118 20.75 11C20.75 6.175 16.825 2.25 12 2.25ZM12.119 20.021L12 20.1001L11.881 20.021C8.871 18.033 4.75 15.311 4.75 11C4.75 7.002 8.002 3.75 12 3.75C15.998 3.75 19.25 7.002 19.25 11C19.25 15.311 15.128 18.034 12.119 20.021ZM12 7.75C10.208 7.75 8.75 9.208 8.75 11C8.75 12.792 10.208 14.25 12 14.25C13.792 14.25 15.25 12.792 15.25 11C15.25 9.208 13.792 7.75 12 7.75ZM12 12.75C11.035 12.75 10.25 11.965 10.25 11C10.25 10.035 11.035 9.25 12 9.25C12.965 9.25 13.75 10.035 13.75 11C13.75 11.965 12.965 12.75 12 12.75Z" fill="white"/>
</svg>
