<svg width="28" height="27" viewBox="0 0 28 27" fill="none" xmlns="http://www.w3.org/2000/svg">
<g filter="url(#filter0_d_2162_38140)">
<path d="M18 7H5C4.448 7 4 6.552 4 6C4 5.448 4.448 5 5 5H18C18.552 5 19 5.448 19 6C19 6.552 18.552 7 18 7ZM24 12C24 11.448 23.552 11 23 11H5C4.448 11 4 11.448 4 12C4 12.552 4.448 13 5 13H23C23.552 13 24 12.552 24 12ZM15 18C15 17.448 14.552 17 14 17H5C4.448 17 4 17.448 4 18C4 18.552 4.448 19 5 19H14C14.552 19 15 18.552 15 18Z" fill="white"/>
</g>
<defs>
<filter id="filter0_d_2162_38140" x="-2" y="0" width="32" height="32" filterUnits="userSpaceOnUse" color-interpolation-filters="sRGB">
<feFlood flood-opacity="0" result="BackgroundImageFix"/>
<feColorMatrix in="SourceAlpha" type="matrix" values="0 0 0 0 0 0 0 0 0 0 0 0 0 0 0 0 0 0 127 0" result="hardAlpha"/>
<feOffset dy="4"/>
<feGaussianBlur stdDeviation="2"/>
<feComposite in2="hardAlpha" operator="out"/>
<feColorMatrix type="matrix" values="0 0 0 0 0 0 0 0 0 0 0 0 0 0 0 0 0 0 0.25 0"/>
<feBlend mode="normal" in2="BackgroundImageFix" result="effect1_dropShadow_2162_38140"/>
<feBlend mode="normal" in="SourceGraphic" in2="effect1_dropShadow_2162_38140" result="shape"/>
</filter>
</defs>
</svg>
