<svg width="20" height="20" viewBox="0 0 20 20" fill="none" xmlns="http://www.w3.org/2000/svg">
<path d="M13.7933 18.1267C13.4108 18.1267 13.0259 18.075 12.6459 17.9708C7.50922 16.5608 3.44087 12.4958 2.03004 7.36166C1.7092 6.19416 1.88499 4.97749 2.52666 3.93749C3.17083 2.89249 4.23004 2.15582 5.43254 1.91499C6.22671 1.75582 7.02337 2.11083 7.42921 2.79583L8.7317 4.99497C9.3642 6.06331 9.04992 7.43997 8.01576 8.12747L7.07337 8.75415C7.95421 10.5633 9.43575 12.0483 11.2366 12.9283L11.8718 11.9808C12.5626 10.9483 13.94 10.6391 15.0075 11.275L17.2101 12.5883C17.8918 12.995 18.245 13.79 18.0892 14.5675C17.8492 15.77 17.1117 16.8291 16.0675 17.4733C15.3658 17.9058 14.585 18.1267 13.7933 18.1267ZM5.81503 3.12498C5.7742 3.12498 5.73255 3.12916 5.69255 3.13749C4.81422 3.31333 4.05422 3.84248 3.59172 4.59331C3.13422 5.33498 3.00837 6.20082 3.2367 7.02999C4.53087 11.7417 8.26336 15.4717 12.9767 16.765C13.8059 16.9925 14.6708 16.8658 15.4108 16.4092C16.1608 15.9467 16.6909 15.185 16.8634 14.3217C16.9151 14.0625 16.7975 13.7967 16.57 13.6617L14.3675 12.3483C13.8691 12.0525 13.23 12.1975 12.91 12.6767L11.9808 14.0642C11.8141 14.3125 11.4926 14.4075 11.2209 14.2925C8.75175 13.2608 6.7434 11.2467 5.70924 8.76832C5.59424 8.49165 5.69162 8.17332 5.93995 8.00749L7.32423 7.08665C7.80423 6.76748 7.95002 6.12832 7.65585 5.63248L6.35336 3.43331C6.23919 3.23915 6.03253 3.12498 5.81503 3.12498ZM12.3908 12.3283H12.3991H12.3908ZM14.7917 8.33332C14.7917 6.60998 13.3892 5.20832 11.6667 5.20832C11.3217 5.20832 11.0417 5.48832 11.0417 5.83332C11.0417 6.17832 11.3217 6.45832 11.6667 6.45832C12.7 6.45832 13.5417 7.29915 13.5417 8.33332C13.5417 8.67832 13.8217 8.95832 14.1667 8.95832C14.5117 8.95832 14.7917 8.67832 14.7917 8.33332ZM17.2917 8.33332C17.2917 5.23165 14.7683 2.70832 11.6667 2.70832C11.3217 2.70832 11.0417 2.98832 11.0417 3.33332C11.0417 3.67832 11.3217 3.95832 11.6667 3.95832C14.0792 3.95832 16.0417 5.92082 16.0417 8.33332C16.0417 8.67832 16.3217 8.95832 16.6667 8.95832C17.0117 8.95832 17.2917 8.67832 17.2917 8.33332Z" fill="#1E1E1E"/>
</svg>
