<svg width="20" height="20" viewBox="0 0 20 20" fill="none" xmlns="http://www.w3.org/2000/svg">
<path d="M13.7933 18.1267C13.4108 18.1267 13.0259 18.075 12.6459 17.9708C7.50838 16.5608 3.44087 12.4958 2.03004 7.36168C1.7092 6.19418 1.88499 4.9775 2.52666 3.9375C3.17083 2.8925 4.23004 2.155 5.43254 1.915C6.23254 1.755 7.02338 2.11167 7.42921 2.79584L8.7317 4.99583C9.3642 6.06416 9.04992 7.43999 8.01576 8.12833L7.07337 8.75501C7.95421 10.5633 9.43575 12.0492 11.2366 12.9292L11.8718 11.9817C12.5643 10.9492 13.94 10.64 15.0075 11.2758L17.2101 12.5892C17.8918 12.9958 18.2442 13.7917 18.0892 14.5683C17.8492 15.7708 17.1117 16.83 16.0675 17.4742C15.3658 17.9058 14.585 18.1267 13.7933 18.1267ZM5.81503 3.125C5.7742 3.125 5.73255 3.12918 5.69255 3.13751C4.81422 3.31334 4.05339 3.84249 3.59172 4.59332C3.13422 5.33499 3.00837 6.20083 3.2367 7.03C4.53087 11.7408 8.26336 15.4717 12.9767 16.765C13.8067 16.9925 14.6699 16.8658 15.4108 16.4092C16.1608 15.9467 16.6909 15.185 16.8634 14.3217C16.9151 14.0625 16.7976 13.7967 16.5692 13.6608L14.3675 12.3475C13.8716 12.0525 13.2316 12.1967 12.91 12.6758L11.9808 14.0633C11.8141 14.3117 11.4926 14.4067 11.2209 14.2917C8.75175 13.2592 6.74257 11.2458 5.70924 8.76749C5.59424 8.49083 5.69078 8.1725 5.93995 8.00666L7.32423 7.08582C7.80423 6.76666 7.95002 6.12749 7.65585 5.63166L6.35336 3.43249C6.2392 3.23915 6.03253 3.125 5.81503 3.125Z" fill="white"/>
</svg>
