<svg width="100" height="100" viewBox="0 0 100 100" fill="none" xmlns="http://www.w3.org/2000/svg">
<g clip-path="url(#clip0_2171_31953)">
<circle cx="70" cy="69" r="30" fill="#272727"/>
<path d="M20.8333 87.5V20.8333C20.8333 18.6232 21.7112 16.5036 23.274 14.9408C24.8368 13.378 26.9564 12.5 29.1666 12.5H70.8333C73.0434 12.5 75.163 13.378 76.7258 14.9408C78.2886 16.5036 79.1666 18.6232 79.1666 20.8333V87.5L66.6666 79.1667L58.3333 87.5L49.9999 79.1667L41.6666 87.5L33.3333 79.1667L20.8333 87.5Z" stroke="#CFB376" stroke-linecap="round" stroke-linejoin="round"/>
<path d="M58.3334 33.3333H47.9167C46.2591 33.3333 44.6694 33.9917 43.4973 35.1638C42.3252 36.3359 41.6667 37.9256 41.6667 39.5833C41.6667 41.2409 42.3252 42.8306 43.4973 44.0027C44.6694 45.1748 46.2591 45.8333 47.9167 45.8333H52.0834C53.741 45.8333 55.3307 46.4917 56.5028 47.6638C57.6749 48.8359 58.3334 50.4256 58.3334 52.0833C58.3334 53.7409 57.6749 55.3306 56.5028 56.5027C55.3307 57.6748 53.741 58.3333 52.0834 58.3333H41.6667M50.0001 58.3333V64.5833M50.0001 27.0833V33.3333" stroke="#CFB376" stroke-linecap="round" stroke-linejoin="round"/>
</g>
<defs>
<clipPath id="clip0_2171_31953">
<rect width="100" height="100" fill="white"/>
</clipPath>
</defs>
</svg>
