<svg width="172" height="32" viewBox="0 0 172 32" fill="none" xmlns="http://www.w3.org/2000/svg">
<path d="M32.6167 0H0.666748V32H32.6167V0Z" fill="#73CF11"/>
<path d="M67.23 0H35.28V32H67.23V0Z" fill="#73CF11"/>
<path d="M101.843 0H69.8933V32H101.843V0Z" fill="#73CF11"/>
<path d="M136.453 0H104.503V32H136.453V0Z" fill="#73CF11"/>
<path d="M171.066 0H139.116V32H171.066V0Z" fill="#E6E8EF"/>
<path d="M16.6422 21.5671L21.5013 20.3337L23.5314 26.6004L16.6422 21.5671ZM27.8247 13.4671H19.2714L16.6422 5.40039L14.013 13.4671H5.45972L12.3822 18.4671L9.753 26.5337L16.6755 21.5337L20.9355 18.4671L27.8247 13.4671Z" fill="white"/>
<path d="M51.2555 21.5671L56.1146 20.3337L58.1447 26.6004L51.2555 21.5671ZM62.438 13.4671H53.8847L51.2555 5.40039L48.6263 13.4671H40.073L46.9955 18.4671L44.3663 26.5337L51.2888 21.5337L55.5488 18.4671L62.438 13.4671Z" fill="white"/>
<path d="M85.8649 21.5671L90.7239 20.3337L92.7541 26.6004L85.8649 21.5671ZM97.0474 13.4671H88.4941L85.8649 5.40039L83.2357 13.4671H74.6824L81.6049 18.4671L78.9757 26.5337L85.8982 21.5337L90.1582 18.4671L97.0474 13.4671Z" fill="white"/>
<path d="M120.478 21.5671L125.337 20.3337L127.367 26.6004L120.478 21.5671ZM131.661 13.4671H123.107L120.478 5.40039L117.849 13.4671H109.296L116.218 18.4671L113.589 26.5337L120.511 21.5337L124.771 18.4671L131.661 13.4671Z" fill="white"/>
<path d="M155.091 21.5671L159.95 20.3337L161.981 26.6004L155.091 21.5671ZM166.274 13.4671H157.721L155.091 5.40039L152.462 13.4671H143.909L150.831 18.4671L148.202 26.5337L155.125 21.5337L159.385 18.4671L166.274 13.4671Z" fill="white"/>
</svg>
