<svg width="171" height="32" viewBox="0 0 171 32" fill="none" xmlns="http://www.w3.org/2000/svg">
<g clip-path="url(#clip0_46_628)">
<path d="M31.95 0H0V32H31.95V0Z" fill="#04B980"/>
<path d="M66.5633 0H34.6133V32H66.5633V0Z" fill="#04B980"/>
<path d="M101.177 0H69.2266V32H101.177V0Z" fill="#04B980"/>
<path d="M135.786 0H103.836V32H135.786V0Z" fill="#04B980"/>
<path d="M170.399 0H138.449V32H170.399V0Z" fill="#04B980"/>
<path d="M15.9755 21.5671L20.8345 20.3337L22.8647 26.6004L15.9755 21.5671ZM27.158 13.4671H18.6047L15.9755 5.40039L13.3462 13.4671H4.79297L11.7155 18.4671L9.08625 26.5337L16.0087 21.5337L20.2687 18.4671L27.158 13.4671Z" fill="white"/>
<path d="M50.5888 21.5671L55.4478 20.3337L57.478 26.6004L50.5888 21.5671ZM61.7713 13.4671H53.218L50.5888 5.40039L47.9595 13.4671H39.4062L46.3288 18.4671L43.6995 26.5337L50.622 21.5337L54.882 18.4671L61.7713 13.4671Z" fill="white"/>
<path d="M85.1981 21.5671L90.0572 20.3337L92.0874 26.6004L85.1981 21.5671ZM96.3806 13.4671H87.8273L85.1981 5.40039L82.5689 13.4671H74.0156L80.9381 18.4671L78.3089 26.5337L85.2314 21.5337L89.4914 18.4671L96.3806 13.4671Z" fill="white"/>
<path d="M119.811 21.5671L124.67 20.3337L126.701 26.6004L119.811 21.5671ZM130.994 13.4671H122.441L119.811 5.40039L117.182 13.4671H108.629L115.551 18.4671L112.922 26.5337L119.845 21.5337L124.105 18.4671L130.994 13.4671Z" fill="white"/>
<path d="M154.425 21.5671L159.284 20.3337L161.314 26.6004L154.425 21.5671ZM165.607 13.4671H157.054L154.425 5.40039L151.795 13.4671H143.242L150.165 18.4671L147.535 26.5337L154.458 21.5337L158.718 18.4671L165.607 13.4671Z" fill="white"/>
</g>
<defs>
<clipPath id="clip0_46_628">
<rect width="170.4" height="32" fill="white"/>
</clipPath>
</defs>
</svg>
