<svg width="28" height="30" viewBox="0 0 28 30" fill="none" xmlns="http://www.w3.org/2000/svg">
<g filter="url(#filter0_d_2162_38135)">
<path d="M23.53 20.47L19.689 16.629C20.973 15.106 21.75 13.143 21.75 11C21.75 6.175 17.825 2.25 13 2.25C8.175 2.25 4.25 6.175 4.25 11C4.25 15.825 8.175 19.75 13 19.75C15.143 19.75 17.106 18.973 18.629 17.689L22.47 21.53C22.616 21.676 22.808 21.75 23 21.75C23.192 21.75 23.384 21.677 23.53 21.53C23.823 21.238 23.823 20.763 23.53 20.47ZM5.75 11C5.75 7.002 9.002 3.75 13 3.75C16.998 3.75 20.25 7.002 20.25 11C20.25 14.998 16.998 18.25 13 18.25C9.002 18.25 5.75 14.998 5.75 11Z" fill="white"/>
</g>
<defs>
<filter id="filter0_d_2162_38135" x="-2" y="0" width="32" height="32" filterUnits="userSpaceOnUse" color-interpolation-filters="sRGB">
<feFlood flood-opacity="0" result="BackgroundImageFix"/>
<feColorMatrix in="SourceAlpha" type="matrix" values="0 0 0 0 0 0 0 0 0 0 0 0 0 0 0 0 0 0 127 0" result="hardAlpha"/>
<feOffset dy="4"/>
<feGaussianBlur stdDeviation="2"/>
<feComposite in2="hardAlpha" operator="out"/>
<feColorMatrix type="matrix" values="0 0 0 0 0 0 0 0 0 0 0 0 0 0 0 0 0 0 0.25 0"/>
<feBlend mode="normal" in2="BackgroundImageFix" result="effect1_dropShadow_2162_38135"/>
<feBlend mode="normal" in="SourceGraphic" in2="effect1_dropShadow_2162_38135" result="shape"/>
</filter>
</defs>
</svg>
