<svg width="20" height="20" viewBox="0 0 20 20" fill="none" xmlns="http://www.w3.org/2000/svg">
<path d="M17.9542 6.55918L17.0883 3.99918C16.6808 2.79585 16.1766 1.87585 13.75 1.87585H6.24998C3.82332 1.87585 3.31915 2.79585 2.91248 3.99918L2.04497 6.56001C1.6608 7.69668 1.94665 8.90668 2.70832 9.70335V15C2.70832 17.015 3.81832 18.125 5.83332 18.125H14.1666C16.1816 18.125 17.2916 17.015 17.2916 15V9.70252C18.0533 8.90585 18.3384 7.69585 17.9542 6.55918ZM3.22915 6.96002L4.09666 4.39919C4.38333 3.55085 4.52748 3.12502 6.24998 3.12502H13.75C15.4725 3.12502 15.6166 3.55085 15.9041 4.39919L16.77 6.95918C17.0567 7.80418 16.7533 8.71252 16.0508 9.11835C15.0283 9.70835 13.4808 9.12001 13.1266 8.12418C13.0383 7.87501 12.8017 7.70835 12.5375 7.70835C12.5367 7.70835 12.5358 7.70835 12.535 7.70835C12.27 7.70918 12.0334 7.87751 11.9467 8.12835C11.7 8.83918 10.8633 9.37502 9.99998 9.37502C9.13665 9.37502 8.29993 8.83918 8.05327 8.12835C7.9666 7.87751 7.72999 7.70918 7.46499 7.70835C7.22749 7.73668 6.96169 7.87418 6.87336 8.12418C6.62002 8.83668 5.77919 9.37502 4.91586 9.37502C4.57336 9.37502 4.23916 9.28668 3.94916 9.11835C3.24666 8.71335 2.94332 7.80502 3.22915 6.96002ZM11.0667 16.875H8.98334V14.5833C8.98334 14.0092 9.45084 13.5417 10.025 13.5417C10.5992 13.5417 11.0667 14.0092 11.0667 14.5833V16.875ZM14.1666 16.875H12.3167V14.5833C12.3167 13.3192 11.2892 12.2917 10.025 12.2917C8.76084 12.2917 7.73334 13.3192 7.73334 14.5833V16.875H5.83332C4.51915 16.875 3.95832 16.3142 3.95832 15V10.4617C5.18332 10.8217 6.63003 10.4175 7.45919 9.51084C8.07752 10.19 9.01998 10.6242 9.99998 10.6242C10.98 10.6242 11.9224 10.19 12.5408 9.51084C13.1624 10.19 14.1058 10.6242 15.0841 10.6242C15.4116 10.6242 15.7333 10.5683 16.0416 10.4717V15C16.0416 16.3142 15.4808 16.875 14.1666 16.875Z" fill="white"/>
</svg>
