<svg width="65" height="64" viewBox="0 0 65 64" fill="none" xmlns="http://www.w3.org/2000/svg">
<rect width="64" height="64" rx="32" fill="#303030"/>
<path d="M26.3999 37.9998V25.9998C26.3999 25.1998 26.7999 24.7998 27.5999 24.7998H29.1999C29.9999 24.7998 30.3999 25.1998 30.3999 25.9998V37.9998C30.3999 38.7998 29.9999 39.1998 29.1999 39.1998H27.5999C26.7999 39.1998 26.3999 38.7998 26.3999 37.9998ZM34.7999 39.1998H36.3999C37.1999 39.1998 37.5999 38.7998 37.5999 37.9998V25.9998C37.5999 25.1998 37.1999 24.7998 36.3999 24.7998H34.7999C33.9999 24.7998 33.5999 25.1998 33.5999 25.9998V37.9998C33.5999 38.7998 33.9999 39.1998 34.7999 39.1998Z" fill="white"/>
<path fill-rule="evenodd" clip-rule="evenodd" d="M60.5712 17.5653C58.1561 12.7838 54.5793 8.68513 50.1688 5.64502L49.7165 6.30122C54.0163 9.26527 57.5033 13.2612 59.8579 17.9228C62.2126 22.5847 63.3593 27.7632 63.1928 32.9834C63.0264 38.2035 61.5522 43.2984 58.9053 47.8009C56.2585 52.3034 52.5237 56.0693 48.0434 58.7535C43.5631 61.4377 38.4806 62.9542 33.262 63.164C28.0434 63.3738 22.8556 62.2702 18.1743 59.9543C13.4929 57.6385 9.46787 54.1845 6.46812 49.909C3.46895 45.6344 1.59064 40.6754 1.00531 35.4865L0.209229 35.5762C0.809163 40.8993 2.73579 45.9865 5.81245 50.3716C8.88912 54.7567 13.0174 58.2993 17.8187 60.6745C22.6201 63.0498 27.9409 64.1817 33.2934 63.9665C38.6458 63.7513 43.8586 62.1959 48.4538 59.4429C53.0489 56.6899 56.8795 52.8274 59.5942 48.2094C62.309 43.5915 63.821 38.366 63.9917 33.012C64.1623 27.6579 62.9862 22.3467 60.5712 17.5653Z" fill="white"/>
</svg>
