<svg width="21" height="18" viewBox="0 0 21 18" fill="none" xmlns="http://www.w3.org/2000/svg">
<path d="M1.5 3.99989H3.26697C3.74097 3.99989 4.19906 3.83177 4.56006 3.52577L8.25098 0.398818C9.33598 -0.520182 11.001 0.250988 11.001 1.67299V16.3268C11.001 17.7488 9.33598 18.521 8.25098 17.601L4.56006 14.474C4.19906 14.168 3.74097 13.9999 3.26697 13.9999H1.5C0.672 13.9999 0 13.3279 0 12.4999V5.50087C0 4.67187 0.672 3.99989 1.5 3.99989ZM14.767 13.7709C16.046 12.4979 16.75 10.8029 16.75 8.99989C16.75 7.19689 16.046 5.5019 14.767 4.2289C14.473 3.9369 13.9981 3.93685 13.7061 4.23085C13.4131 4.52385 13.415 4.99988 13.708 5.29188C14.702 6.28188 15.25 7.59987 15.25 9.00087C15.25 10.4019 14.702 11.7199 13.708 12.7099C13.415 13.0019 13.4131 13.4769 13.7061 13.7709C13.8521 13.9179 14.0451 13.9918 14.2371 13.9918C14.4291 13.9898 14.62 13.9169 14.767 13.7709ZM17.067 16.82C16.875 16.82 16.682 16.747 16.536 16.6C16.244 16.307 16.244 15.832 16.538 15.539C18.287 13.795 19.25 11.4729 19.25 8.99989C19.25 6.52689 18.287 4.20583 16.538 2.46083C16.244 2.16783 16.244 1.69279 16.536 1.39979C16.828 1.10679 17.303 1.10582 17.597 1.39882C19.63 3.42682 20.75 6.12689 20.75 8.99989C20.75 11.8729 19.63 14.573 17.597 16.601C17.45 16.747 17.259 16.82 17.067 16.82Z" fill="white"/>
</svg>
